<?xml version="1.0" encoding="utf-8"?>
<!-- Generator: Adobe Illustrator 25.4.1, SVG Export Plug-In . SVG Version: 6.00 Build 0)  -->
<svg version="1.1" id="Capa_1" xmlns="http://www.w3.org/2000/svg" xmlns:xlink="http://www.w3.org/1999/xlink" x="0px" y="0px"
	 viewBox="0 0 67 67" style="enable-background:new 0 0 67 67;" xml:space="preserve">
<style type="text/css">
	.st0{fill:url(#SVGID_1_);}
	.st1{fill:url(#SVGID_00000114076075634153744600000012966339268043139457_);}
	.st2{fill:url(#SVGID_00000016756836616334678030000002214867220988318648_);}
	.st3{fill:url(#SVGID_00000127012029253102656400000018017408225952081589_);}
	.st4{fill:url(#SVGID_00000111170357043231161290000014819236053768511666_);}
</style>
<g>
	<linearGradient id="SVGID_1_" gradientUnits="userSpaceOnUse" x1="0.0546" y1="28.459" x2="51.2902" y2="28.459">
		<stop  offset="0" style="stop-color:#DEB373"/>
		<stop  offset="0.2184" style="stop-color:#D39D45"/>
		<stop  offset="0.5" style="stop-color:#C6820E"/>
		<stop  offset="0.5979" style="stop-color:#BF7C10"/>
		<stop  offset="1" style="stop-color:#A86518"/>
	</linearGradient>
	<path class="st0" d="M41.94,40.55c-2.28-0.38-4.35-1.02-6.33-1.94c-2.33-1.08-2.55-1.55-1.7-3.92c0.5-1.39,0.94-2.79,1.45-4.18
		c0.51-1.39,1.15-1.75,2.57-1.39c2.36,0.6,4.6,1.58,6.88,2.41c1.1,0.4,1.41,1.24,0.95,2.45c-0.6,1.59-1.29,3.16-1.99,4.87
		c0.84-0.01,1.3-0.45,1.72-0.9c1.2-1.31,1.8-2.83,1.95-4.63c0.19-2.38,0.59-4.74,0.91-7.1c0.45-3.31,0.78-6.64,1.45-9.92
		c0.02-0.12,0.01-0.24,0.05-0.35c0.16-0.5,0.11-1.29,0.86-1.22c0.68,0.06,0.54,0.78,0.55,1.27c0.19,5.86-0.21,11.71-0.31,17.57
		c-0.03,1.76,0.14,3.6-0.43,5.33c-1.13,3.42-3.76,5.27-7.01,6.28c-3.37,1.05-6.83,1.19-10.38,0.86c-4.19-0.4-8.24-1.29-12.25-2.51
		c-0.44-0.13-1.01-0.35-1.26,0.24c-0.05,0.11-0.06,0.21-0.05,0.29c0.03,0.3,0.32,0.52,0.65,0.76c1.04,0.75,0.72,0.55,0.96,0.71
		c0.12,0.07,1.17,0.74,1.57,0.97c0.62,0.36,2.09,1.04,3.92,1.55c1.57,0.44,2.82,0.59,3.56,0.68c1.2,0.14,2.25,0.18,2.38,0.18
		c0.93,0.03,1.4,0.04,1.87,0.03c0.52-0.02,0.88-0.05,1.41,0.02c0.47,0.06,0.84,0.17,1.09,0.26c-0.04,0.05-0.05,0.2-0.15,0.2
		C31.06,49.83,25.5,49.29,20.53,46c-0.37-0.24-0.71-0.52-1.06-0.78c-0.64-0.49-0.93-1.1-0.54-1.87c0.39-0.79,1.07-0.91,1.83-0.67
		c2.58,0.83,5.2,1.51,7.87,1.99c4.37,0.78,8.77,1.26,13.15,0.2c2.87-0.7,5.49-1.9,7.2-4.54c1.18-1.82,1.18-3.9,1.24-5.89
		c0.17-5.98,0.1-10.36,0.04-14.71c0-0.28-0.01-1.29-0.06-1.29c-0.03,0-0.06,0.33-0.08,0.63c-0.12,1.06-1.05,8.11-1.97,14.97
		c-0.37,2.77-1.65,4.88-4.4,5.88c-0.39,0.14-0.68,0.4-0.86,0.78c-0.48,1.02-1.33,1.23-2.3,0.91c-2.04-0.67-4.06-1.4-6.09-2.11
		c-0.38-0.13-0.75-0.28-1.12-0.4c-1.75-0.55-2.14-1.29-1.53-3.06c0.34-0.98,0.79-1.91,1.17-2.88c0.37-0.94,0.17-1.57-0.9-1.93
		c-1.88-0.64-3.73-1.41-5.59-2.1c-1.23-0.46-1.63-0.29-2.1,0.93c-0.5,1.3-0.94,2.62-1.42,3.93c-0.26,0.72-0.1,1.2,0.66,1.51
		c1.77,0.73,3.52,1.5,5.27,2.27c0.47,0.21,0.96,0.41,1.4,0.67c0.66,0.39,0.94,0.99,0.63,1.73c-0.3,0.72-0.86,1.26-1.68,1.02
		c-2.52-0.75-4.95-1.78-7.29-2.98c-0.69-0.35-0.78-1.1-0.61-1.79c0.19-0.79-0.14-1.21-0.8-1.5c-0.29-0.13-0.56-0.31-0.84-0.45
		c-2.38-1.21-3.38-3.21-3.46-5.82c-0.13-4.27,0.31-8.52,0.27-12.78c-0.01-1.24,0.73-1.65,1.82-0.98c4.24,2.62,8.87,3.58,13.81,3.49
		c3.19-0.06,6.38,0.04,9.5-0.75c2.4-0.61,4.76-1.35,6.63-3.1c1.54-1.44,1.41-2.83-0.44-3.8c-2.25-1.19-4.76-1.49-7.23-1.92
		c-3.92-0.68-7.88-0.61-11.8-0.42c-3.68,0.17-7.38,0.6-10.76,2.38c-0.73,0.38-1.27,0.85-1.66,1.41c-0.19,0.27-0.6,0.93-0.83,2.75
		c-0.18,1.44-0.06,2.13-0.03,4.75c0.01,1.03,0,1.01,0,2.27c0.02,4.83,0.31,5.68,0.29,9.47c-0.01,1.38-0.05,2.19-0.02,3.99
		c0.01,0.65,0.03,1.05,0,1.71c-0.06,1.74-0.09,2.61-0.44,3.23c-0.58,1.03-1.77,1.41-3.59,1.74c-1.72,0.31-3.47,0.45-5.23,0.44
		c-1.91-0.01-3.83,0-5.74-0.01c-0.3,0-0.77,0.06-0.77-0.35c0-0.41,0.46-0.35,0.76-0.35c2.31-0.01,4.63,0.01,6.94-0.02
		c1.72-0.02,3.41-0.36,5.05-0.81c1.9-0.51,2.28-1.15,2.3-3.09c0.06-7.33-0.28-14.66-0.3-21.99c-0.01-4.47,1.6-5.43,4.67-6.67
		c2.64-1.07,5.48-1.34,8.29-1.64c4.66-0.51,9.3-0.19,13.92,0.5c2.2,0.33,4.39,0.79,6.43,1.78c2.49,1.2,2.84,3,0.98,5.03
		c-1.43,1.55-3.3,2.38-5.25,2.96c-4.67,1.39-9.43,1.76-14.3,1.31c-2.8-0.26-5.5-0.78-8.13-1.77c-1.13-0.43-2.12-1.11-3.17-1.66
		c-0.7-0.37-0.91-0.16-0.97,0.56c-0.37,4.26-0.27,8.52-0.2,12.78c0.04,2.39,2.09,4.81,4.28,5.38c0.58,0.15,0.71-0.24,0.84-0.61
		c0.53-1.46,1.04-2.93,1.56-4.39c0.5-1.39,1.36-1.76,2.7-1.24c1.97,0.76,3.95,1.49,5.92,2.24c1.56,0.59,1.93,1.27,1.41,2.86
		c-0.34,1.06-0.83,2.07-1.23,3.11c-0.37,0.96-0.09,1.54,0.96,1.88c2.31,0.74,4.58,1.61,6.87,2.41
		C40.86,40.89,41.37,41.14,41.94,40.55z M40.93,39.45c1.24,0.2,1.96-0.26,2.34-1.48c0.43-1.36,1.02-2.67,1.58-3.98
		c0.42-0.99,0.12-1.59-0.87-1.93c-2.03-0.7-4.06-1.39-6.06-2.15c-0.89-0.34-1.41-0.01-1.7,0.75c-0.65,1.67-1.25,3.35-1.84,5.03
		c-0.21,0.61-0.16,1.22,0.47,1.57C36.76,38.32,38.75,39.19,40.93,39.45z M29.07,40.31c0.61,0.05,1.03-0.04,1.14-0.49
		c0.14-0.56-0.35-0.76-0.74-0.93c-1.97-0.85-3.95-1.69-5.94-2.51c-0.4-0.17-0.89-0.62-1.24,0.02c-0.38,0.7,0.05,1.15,0.64,1.42
		c1.31,0.59,2.63,1.14,3.95,1.69C27.65,39.82,28.44,40.08,29.07,40.31z"/>
	
		<radialGradient id="SVGID_00000083082441700643586540000008295469932165958839_" cx="50.5699" cy="45.6608" r="11.9016" fx="39.472" fy="49.9602" gradientUnits="userSpaceOnUse">
		<stop  offset="1" style="stop-color:#C6820E"/>
		<stop  offset="1" style="stop-color:#BF7C10"/>
		<stop  offset="1" style="stop-color:#A86518"/>
	</radialGradient>
	<path style="fill:url(#SVGID_00000083082441700643586540000008295469932165958839_);" d="M61.48,41.83c1.55,0,3.11-0.01,4.66,0.01
		c0.29,0,0.78-0.11,0.81,0.28c0.03,0.5-0.5,0.41-0.82,0.42c-2.55,0.02-5.1,0.07-7.65,0c-0.85-0.02-1.65,0.06-2.42,0.25
		c-1.92,0.46-3.15,1.42-3.86,1.94c0,0-5.23,3.78-11.72,4.59c-1.08,0.13-2.16,0.18-2.16,0.18c-0.3,0.01-0.41,0.01-1.07,0.02
		c-1.23,0.02-3.05,0.06-3.05,0.03c0-0.01,0.71-0.01,0.73-0.13c0.02-0.12-0.61-0.22-0.61-0.33c0.01-0.24,2.97-0.14,5.93-0.5
		c1.45-0.18,3.52-0.47,5.87-1.36c2-0.76,3.88-1.8,5.65-3.13c2.12-1.59,4.38-2.55,7.08-2.27C59.72,41.91,60.6,41.83,61.48,41.83z"/>
</g>
</svg>
